<svg width="64" height="64" viewBox="0 0 64 64" fill="none" xmlns="http://www.w3.org/2000/svg">
<path fill-rule="evenodd" clip-rule="evenodd" d="M32 16C32.5304 16 33.0391 16.2107 33.4142 16.5858C33.7893 16.9609 34 17.4696 34 18V20.536L36.196 19.268C36.4235 19.1346 36.6752 19.0475 36.9366 19.0118C37.1979 18.9761 37.4637 18.9924 37.7187 19.0598C37.9737 19.1272 38.2128 19.2444 38.4224 19.4046C38.6319 19.5648 38.8076 19.7649 38.9395 19.9933C39.0714 20.2218 39.1568 20.474 39.1908 20.7356C39.2248 20.9971 39.2067 21.2628 39.1376 21.5174C39.0685 21.7719 38.9497 22.0103 38.7881 22.2187C38.6265 22.4272 38.4253 22.6016 38.196 22.732L36 24L38.196 25.268C38.4253 25.3984 38.6265 25.5728 38.7881 25.7813C38.9497 25.9897 39.0685 26.2281 39.1376 26.4826C39.2067 26.7372 39.2248 27.0029 39.1908 27.2644C39.1568 27.526 39.0714 27.7782 38.9395 28.0067C38.8076 28.2351 38.6319 28.4352 38.4224 28.5954C38.2128 28.7556 37.9737 28.8728 37.7187 28.9402C37.4637 29.0076 37.1979 29.0239 36.9366 28.9882C36.6752 28.9525 36.4235 28.8654 36.196 28.732L34 27.464V30C34 30.5304 33.7893 31.0391 33.4142 31.4142C33.0391 31.7893 32.5304 32 32 32C31.4696 32 30.9609 31.7893 30.5858 31.4142C30.2107 31.0391 30 30.5304 30 30V27.464L27.804 28.732C27.5765 28.8654 27.3248 28.9525 27.0634 28.9882C26.8021 29.0239 26.5363 29.0076 26.2813 28.9402C26.0263 28.8728 25.7872 28.7556 25.5776 28.5954C25.3681 28.4352 25.1924 28.2351 25.0605 28.0067C24.9286 27.7782 24.8432 27.526 24.8092 27.2644C24.7752 27.0029 24.7933 26.7372 24.8624 26.4826C24.9315 26.2281 25.0503 25.9897 25.2119 25.7813C25.3735 25.5728 25.5747 25.3984 25.804 25.268L28 24L25.804 22.732C25.3484 22.4649 25.0169 22.0284 24.8819 21.5178C24.7469 21.0072 24.8194 20.464 25.0835 20.0066C25.3475 19.5492 25.7818 19.2149 26.2915 19.0765C26.8012 18.9381 27.3449 19.007 27.804 19.268L30 20.536V18C30 17.4696 30.2107 16.9609 30.5858 16.5858C30.9609 16.2107 31.4696 16 32 16ZM20 38C20 37.4696 20.2107 36.9609 20.5858 36.5858C20.9609 36.2107 21.4696 36 22 36H42C42.5304 36 43.0391 36.2107 43.4142 36.5858C43.7893 36.9609 44 37.4696 44 38C44 38.5304 43.7893 39.0391 43.4142 39.4142C43.0391 39.7893 42.5304 40 42 40H22C21.4696 40 20.9609 39.7893 20.5858 39.4142C20.2107 39.0391 20 38.5304 20 38ZM20 46C20 45.4696 20.2107 44.9609 20.5858 44.5858C20.9609 44.2107 21.4696 44 22 44H42C42.5304 44 43.0391 44.2107 43.4142 44.5858C43.7893 44.9609 44 45.4696 44 46C44 46.5304 43.7893 47.0391 43.4142 47.4142C43.0391 47.7893 42.5304 48 42 48H22C21.4696 48 20.9609 47.7893 20.5858 47.4142C20.2107 47.0391 20 46.5304 20 46Z" fill="#308FFF"/>
<path d="M12 0H52C54.1217 0 56.1566 0.842855 57.6569 2.34315C59.1571 3.84344 60 5.87827 60 8V56C60 58.1217 59.1571 60.1566 57.6569 61.6569C56.1566 63.1571 54.1217 64 52 64H12C9.87827 64 7.84344 63.1571 6.34315 61.6569C4.84285 60.1566 4 58.1217 4 56V52H8V56C8 57.0609 8.42143 58.0783 9.17157 58.8284C9.92172 59.5786 10.9391 60 12 60H52C53.0609 60 54.0783 59.5786 54.8284 58.8284C55.5786 58.0783 56 57.0609 56 56V8C56 6.93913 55.5786 5.92172 54.8284 5.17157C54.0783 4.42143 53.0609 4 52 4H12C10.9391 4 9.92172 4.42143 9.17157 5.17157C8.42143 5.92172 8 6.93913 8 8V12H4V8C4 5.87827 4.84285 3.84344 6.34315 2.34315C7.84344 0.842855 9.87827 0 12 0Z" fill="#308FFF"/>
<path d="M4 20V18C4 17.4696 4.21071 16.9609 4.58579 16.5858C4.96086 16.2107 5.46957 16 6 16C6.53043 16 7.03914 16.2107 7.41421 16.5858C7.78929 16.9609 8 17.4696 8 18V20H10C10.5304 20 11.0391 20.2107 11.4142 20.5858C11.7893 20.9609 12 21.4696 12 22C12 22.5304 11.7893 23.0391 11.4142 23.4142C11.0391 23.7893 10.5304 24 10 24H2C1.46957 24 0.960859 23.7893 0.585786 23.4142C0.210714 23.0391 0 22.5304 0 22C0 21.4696 0.210714 20.9609 0.585786 20.5858C0.960859 20.2107 1.46957 20 2 20H4ZM4 32V30C4 29.4696 4.21071 28.9609 4.58579 28.5858C4.96086 28.2107 5.46957 28 6 28C6.53043 28 7.03914 28.2107 7.41421 28.5858C7.78929 28.9609 8 29.4696 8 30V32H10C10.5304 32 11.0391 32.2107 11.4142 32.5858C11.7893 32.9609 12 33.4696 12 34C12 34.5304 11.7893 35.0391 11.4142 35.4142C11.0391 35.7893 10.5304 36 10 36H2C1.46957 36 0.960859 35.7893 0.585786 35.4142C0.210714 35.0391 0 34.5304 0 34C0 33.4696 0.210714 32.9609 0.585786 32.5858C0.960859 32.2107 1.46957 32 2 32H4ZM4 44V42C4 41.4696 4.21071 40.9609 4.58579 40.5858C4.96086 40.2107 5.46957 40 6 40C6.53043 40 7.03914 40.2107 7.41421 40.5858C7.78929 40.9609 8 41.4696 8 42V44H10C10.5304 44 11.0391 44.2107 11.4142 44.5858C11.7893 44.9609 12 45.4696 12 46C12 46.5304 11.7893 47.0391 11.4142 47.4142C11.0391 47.7893 10.5304 48 10 48H2C1.46957 48 0.960859 47.7893 0.585786 47.4142C0.210714 47.0391 0 46.5304 0 46C0 45.4696 0.210714 44.9609 0.585786 44.5858C0.960859 44.2107 1.46957 44 2 44H4Z" fill="#308FFF"/>
</svg>
